<svg width="460" height="460" viewBox="0 0 460 460" fill="none" xmlns="http://www.w3.org/2000/svg">
  <!-- Fingerprint logo -->
  <circle cx="230" cy="140" r="20" fill="#2ECC71"/>
  <path d="M230 140 Q250 120 270 110" stroke="#2ECC71" stroke-width="18" stroke-linecap="round" fill="none"/>
  <path d="M230 140 Q210 120 190 110" stroke="#2ECC71" stroke-width="18" stroke-linecap="round" fill="none"/>
  <path d="M230 140 Q240 160 250 180" stroke="#2ECC71" stroke-width="18" stroke-linecap="round" fill="none"/>
  
  <path d="M280 90 Q300 80 320 75" stroke="#4CAF50" stroke-width="18" stroke-linecap="round" fill="none"/>
  <path d="M180 90 Q160 80 140 75" stroke="#4CAF50" stroke-width="18" stroke-linecap="round" fill="none"/>
  
  <path d="M330 70 Q350 65 370 65" stroke="#2C3E50" stroke-width="18" stroke-linecap="round" fill="none"/>
  <path d="M130 70 Q110 65 90 65" stroke="#2C3E50" stroke-width="18" stroke-linecap="round" fill="none"/>
  
  <path d="M260 200 Q270 220 280 240" stroke="#2C3E50" stroke-width="18" stroke-linecap="round" fill="none"/>
  <path d="M290 250 Q300 270 305 290" stroke="#34495E" stroke-width="18" stroke-linecap="round" fill="none"/>
  
  <!-- !RMZ text -->
  <text x="75" y="390" font-family="Arial, sans-serif" font-size="120" font-weight="900" fill="#2C3E50">!RMZ</text>
</svg>
